<svg version="1.1" viewBox="0 0 300 100" xmlns="http://www.w3.org/2000/svg" xmlns:xlink="http://www.w3.org/1999/xlink" x="0px" y="0px" viewBox="0 0 1000 1000" enable-background="new 0 0 1000 1000" xml:space="preserve">
<metadata> Svg Vector Icons : http://www.onlinewebfonts.com/icon </metadata>
<g><path d="M49.2,272.7L49.2,272.7v454.5c0,21.8,17.5,39.5,39.1,39.5h823.3c21.6,0,39.1-17.7,39.1-39.5V272.7c0-21.8-17.5-39.5-39.1-39.5H88.3C66.8,233.3,49.2,251,49.2,272.7L49.2,272.7z M10,272.7c0-43.6,35.2-79,78.3-79h823.3c43.3,0,78.3,35.4,78.3,79v454.5c0,43.6-35.2,79-78.3,79H88.3c-43.3,0-78.3-35.4-78.3-79V272.7L10,272.7z"/><path d="M250.1,508.4c-53.7,0-97.4-44.1-97.4-98.3c0-54.2,43.7-98.3,97.4-98.3c53.7,0,97.5,44.1,97.5,98.3C347.6,464.3,303.9,508.4,250.1,508.4L250.1,508.4z M250.1,345.9c-35.1,0-63.6,28.8-63.6,64.2c0,35.4,28.5,64.2,63.6,64.2c35.1,0,63.6-28.8,63.6-64.2C313.7,374.7,285.2,345.9,250.1,345.9L250.1,345.9z M832.3,339.5H419.7v37.4h412.6V339.5z M832.3,439.5H419.7v37.4h412.6V439.5z M850.9,660.2H149.1v37.4h701.7V660.2z"/></g>
</svg>
